Coordinates
nRows=10
nColumns=24

# SIMM Motion File Header:
name Coordinates
datacolumns 24
datarows 10
otherdata 1
range 0.42366999999999999000 0.43267000000000000000
endheader
time	pelvis_tx	pelvis_ty	pelvis_tz	pelvis_tilt	pelvis_list	pelvis_rotation	hip_flexion_r	hip_adduction_r	hip_rotation_r	knee_angle_r	ankle_angle_r	subtalar_angle_r	mtp_angle_r	hip_flexion_l	hip_adduction_l	hip_rotation_l	knee_angle_l	ankle_angle_l	subtalar_angle_l	mtp_angle_l	lumbar_extension	lumbar_bending	lumbar_rotation
      0.42366999999999999000	      1.26891307497805590000	      0.86574915942320230000	     -0.25624865525296125000	      0.53433747725456526000	     -4.04141020578201630000	      3.24961942842311300000	     21.72580433648331400000	      3.86096103157468650000	     -3.65418823244053790000	    -20.83204820824068500000	     -0.17809110937523043000	      0.00000000000000595500	      0.00000000000004668299	     -5.06647703400335650000	     -9.16970387968385480000	     -3.76628684265468690000	    -52.52125688017429900000	     -6.65428054634426140000	      0.00000000000011447154	     -0.00000000000007214830	    -10.01340892190179800000	      8.38923720214104480000	      5.08018372725095890000
      0.42466999999999999000	      1.27107116275779370000	      0.86582646357039816000	     -0.25593468922129808000	      0.53679103807103679000	     -4.14392063312289330000	      3.17745563282763620000	     21.62402287761885600000	      4.02115657228484920000	     -3.68290341139407040000	    -20.91056705839327600000	     -0.02471797156310849600	      0.00000000000000599336	      0.00000000000004720184	     -4.83577284231983210000	     -9.26429403038735800000	     -3.74541324804128360000	    -52.96913692092972800000	     -6.54849141170057350000	      0.00000000000011527525	     -0.00000000000007201694	     -9.99372627801422380000	      8.46212435892876340000	      5.26886074823347790000
      0.42566999999999999000	      1.27322925053753160000	      0.86590376771759403000	     -0.25562072318963491000	      0.53924459888750842000	     -4.24643106046376940000	      3.10529183723215980000	     21.52224141875439800000	      4.18135211299501110000	     -3.71161859034760290000	    -20.98908590854586400000	      0.12865516624901344000	      0.00000000000000603171	      0.00000000000004772068	     -4.60506865063630850000	     -9.35888418109086300000	     -3.72453965342788070000	    -53.41701696168516400000	     -6.44270227705688560000	      0.00000000000011607896	     -0.00000000000007188558	     -9.97404363412664980000	      8.53501151571648190000	      5.45753776921599610000
      0.42666999999999999000	      1.27538213702743590000	      0.86599037357211517000	     -0.25530732155056368000	      0.54182376357714457000	     -4.34839642318031410000	      3.03424506894408900000	     21.41331957188112200000	      4.34003485056402470000	     -3.74173868666497580000	    -21.05619949057108500000	      0.28324542109609468000	      0.00000000000000604660	      0.00000000000004828165	     -4.37297546906842880000	     -9.45062904640100320000	     -3.69648446519422520000	    -53.85932817831776000000	     -6.32856878536315290000	      0.00000000000011692731	     -0.00000000000007189554	     -9.95491390152744770000	      8.60593535830819430000	      5.64911333049473980000
      0.42766999999999999000	      1.27753328975406210000	      0.86608007999574488000	     -0.25499410804235650000	      0.54444479622450215000	     -4.45018009768874910000	      2.96357064309181830000	     21.30201759567158200000	      4.49821332041932460000	     -3.77232708877029350000	    -21.11951131655386900000	      0.43824138162149395000	      0.00000000000000605366	      0.00000000000004885666	     -4.14041929087243420000	     -9.54142548324669270000	     -3.66603541242049590000	    -54.29978312024274300000	     -6.21165384131941690000	      0.00000000000011779053	     -0.00000000000007195260	     -9.93596847269103380000	      8.67620476283457620000	      5.84165507187222040000
      0.42867000000000000000	      1.27967714888645780000	      0.86617900325324704000	     -0.25468156253537599000	      0.54439359600198756000	     -4.55074642625158270000	      2.89386918575831940000	     21.18481872979127400000	      4.65385965174844870000	     -3.80286242721128390000	    -21.16850342155714100000	      0.59559837680157568000	      0.00000000000000606240	      0.00000000000004941226	     -3.90277430730490550000	     -9.62767037672718830000	     -3.62660645127651370000	    -54.73246358778579400000	     -6.08966358824338980000	      0.00000000000011870492	     -0.00000000000007220526	     -9.91452933838771240000	      8.74329412625914590000	      6.03784075362687390000
      0.42967000000000000000	      1.28182100801885350000	      0.86627792651074931000	     -0.25436901702839554000	      0.54434239577947252000	     -4.65131275481441530000	      2.82416772842482100000	     21.06761986391096300000	      4.80950598307757190000	     -3.83339776565227420000	    -21.21749552656040900000	      0.75295537198165785000	      0.00000000000000607113	      0.00000000000004996785	     -3.66512932373737590000	     -9.71391527020768030000	     -3.58717749013252970000	    -55.16514405532884500000	     -5.96767333516736190000	      0.00000000000011961932	     -0.00000000000007245792	     -9.89309020408439290000	      8.81038348968371390000	      6.23402643538152730000
      0.43067000000000000000	      1.28396049750540730000	      0.86638061355652829000	     -0.25405652092639114000	      0.54117637667672114000	     -4.75070941652470060000	      2.75438085934140630000	     20.94858218300159400000	      4.96327547447515820000	     -3.86271773701739200000	    -21.25751806398870200000	      0.90852229336929891000	      0.00000000000000608380	      0.00000000000005050265	     -3.42311967507086300000	     -9.79688132326395690000	     -3.54351967985914220000	    -55.59296222446422300000	     -5.83640157978940800000	      0.00000000000012056275	     -0.00000000000007278534	     -9.86849980081506930000	      8.87507463033027650000	      6.43253981304794390000
      0.43167000000000000000	      1.28609561734611910000	      0.86648706439058387000	     -0.25374407422936285000	      0.53489553869373474000	     -4.84893641138243850000	      2.68450857850807620000	     20.82770568706316500000	      5.11516812594120740000	     -3.89082234130663760000	    -21.28857103384202200000	      1.06229914096449970000	      0.00000000000000610039	      0.00000000000005101666	     -3.17674536130536870000	     -9.87656853589601620000	     -3.49563302045635240000	    -56.01591809519192100000	     -5.69584832210953170000	      0.00000000000012153524	     -0.00000000000007318752	     -9.84075812857974520000	      8.93736754819883390000	      6.63338088662612170000
      0.43267000000000000000	      1.28823073718683110000	      0.86659351522463957000	     -0.25343162753233461000	      0.52861470071074557000	     -4.94716340624017550000	      2.61463629767474530000	     20.70682919112473600000	      5.26706077740725580000	     -3.91892694559588190000	    -21.31962400369533100000	      1.21607598855969680000	      0.00000000000000611699	      0.00000000000005153066	     -2.93037104753987080000	     -9.95625574852807380000	     -3.44774636105356040000	    -56.43887396591962600000	     -5.55529506442964220000	      0.00000000000012250772	     -0.00000000000007358970	     -9.81301645634441930000	      8.99966046606739130000	      6.83422196020430130000
